<svg xmlns="http://www.w3.org/2000/svg" viewBox="0 0 118.29 117.81"><defs><style>.cls-1,.cls-2{fill-rule:evenodd;}.cls-2{fill:red;}</style></defs><g id="Слой_2" data-name="Слой 2"><g id="Слой_1-2" data-name="Слой 1"><path class="cls-1" d="M9.75,82.58c-1.62-.93-4-11.66-4.36-14.38-.5-4-1-12,.07-16.24a3.8,3.8,0,0,1,.17-.51.75.75,0,0,1,.22-.32c.68.23.67.82.83,1.49,1.14,4.84.78,9,1.38,14.36l1.7,11.77c.17.94.62,3,0,3.83Zm7.13-33c-.66,0-4.34,1.89-5.23,2.34-1.85,1-2.39,2.6-2.52,5.07C9,59,9.78,68.43,9.89,71.35c0,.86-.05,2.58.43,3.17l0,.39a40.37,40.37,0,0,0,1.7,8,10,10,0,0,0,2,2.74,17,17,0,0,0,3,2l.5.39.56.4,3.68,2.66a40.45,40.45,0,0,0,4.9,3.3c.2.24,0,.1.28.29s.1.1.53.23a6.4,6.4,0,0,0,.81.56,2.07,2.07,0,0,0,.88.35,3.25,3.25,0,0,0,1.48.85,8.14,8.14,0,0,0,1.1,0,1.17,1.17,0,0,0,.53-.11.7.7,0,0,0,.35-.2,2.61,2.61,0,0,0,1.53-.4l1.76-.76a2.7,2.7,0,0,0,.31-.2c.41-.29.08,0,.31-.25l-.06,0L41,92.31a3.14,3.14,0,0,0,.31-.18l.44-.27c1.72-.77,7-4.17,7-6,.16-.19.12,0,.25-.36.21-.54,0,.07.15-.67l0-2.27c0-.92,0-1.84-.05-2.76l-.29-2.37.05-1.21a24.33,24.33,0,0,0-.41-3.73,9.49,9.49,0,0,0-.16-2.23,12,12,0,0,0-.5-2.63c.14-1.29-1-6.12-1.31-7.71-.42-2.06-2.86-4.26-4-5.3a55.7,55.7,0,0,0-5.07-4.19C36.7,50,32.47,46.65,32,46.63a9.43,9.43,0,0,0-2.45-1.92,14.53,14.53,0,0,0-3.3,1.15c-.49,0-.75.16-1.34.36s-.94.21-1.3.65a5.24,5.24,0,0,0-2.06.69c-.66.27-1.46.54-2,.83a10.54,10.54,0,0,0-2.7,1.23Zm59-16.29A3.74,3.74,0,0,1,75.46,35l-.14,1.24c-.13.57-.24.9-.41,1.44A3.25,3.25,0,0,1,74.34,39c-.07,2.12-4.07,6.4-5.84,6.57a1.64,1.64,0,0,1-1.06.58,2.76,2.76,0,0,1-1.32.58l-.1.09L63.3,48.13a21.75,21.75,0,0,1-4.17,1.76,8.3,8.3,0,0,1-2.56,1.22c-1.36.4-4.07,1.76-5.09,1.78l-.21.14-.1.07-1.56.56c-1.81.62-4.34,1.52-5.86-.44a4.35,4.35,0,0,1-2.15-1.37,4.09,4.09,0,0,1-1.4-.93A40.37,40.37,0,0,1,36.49,48l-5.31-4.6c-.92-1,0-7.48.21-8.79L31.74,33a4.07,4.07,0,0,1,.15-1.66l.42-2.23.39-2.63c.23-1.6.45-5.08,1.53-5.9.39-1.54,5.13-5.48,6.8-5.82.55-.71,5-2.49,6.25-2.71l3.32-1,3.13-.62L56,10.19a15.82,15.82,0,0,1,1.69.13,4.3,4.3,0,0,1,.69.11c.54.16.15,0,.46.21a12.79,12.79,0,0,1,4.46,1.58,20,20,0,0,1,5.21,3.08,30.79,30.79,0,0,1,3.87,2.22c1,.62,2.91,2.13,3.14,2.77.31.2.11,0,.42.33l.22.29a5,5,0,0,1,.35.68c.8,1.34-.21,9.76-.57,11.74ZM53.65,9.05a4.21,4.21,0,0,0,3.23-1.73A26.53,26.53,0,0,0,58.72,4a54.46,54.46,0,0,0-7.14.66l-.53.13-.12,0-.11.06L50.7,5l-1.79.28L46.08,6c-.92-.07-3.61,1.06-4.74,1.36-1.42.58-4.14,1.39-4.9,2.28A6.17,6.17,0,0,0,34,10.79c-.47.29-2,1-2.27,1.32A30.73,30.73,0,0,0,29,13.84a11.44,11.44,0,0,0-2.46,2,2.18,2.18,0,0,0-1.3,1,18.62,18.62,0,0,0,6.11,1.39,5.85,5.85,0,0,0,2.74-1l1.94-1c.29-.17.32-.16.41-.34A20.41,20.41,0,0,0,39,14.5c.46-.27.78-.5,1.2-.75a4.86,4.86,0,0,0,1.38-.91,2.6,2.6,0,0,0,1.44-.67,1.81,1.81,0,0,0,1.08-.55,5.21,5.21,0,0,0,2-.71,44.36,44.36,0,0,0,5.26-1.53,6.15,6.15,0,0,0,2.24-.33ZM31.52,6.5l-.93.44L30.5,7a3.34,3.34,0,0,1-1.34.79,4.34,4.34,0,0,1-1,.68,5.21,5.21,0,0,1-.49.32c-.44.24-.19.14-.52.2-.21.29.06,0-.36.39-.25.2-.05,0-.39.24a5.83,5.83,0,0,0-.88.58c-.18.13-.3.23-.48.34-.46.28-.2.15-.5.23l-.45.45-.37.27a4.16,4.16,0,0,1-1,.66l-.49.32c-.33.52-2.65,2.32-3.65,3.34-1.7,1.72-3.29,3.24-4.91,5.16-1.82,2.16-2.69,3.81-3.9,5.36l-.35.36s-.07.06-.11.09A10.77,10.77,0,0,1,8,29.13c-.47.72-.76,1.65-1.24,2.26L4.41,36.32s0,.07-.08.11c0,.71-1.22,3.36-1.51,4.42A65.89,65.89,0,0,0,.65,50.37c-.14,1-.4,4.68-.65,5.22v7.1a8.8,8.8,0,0,1,.36,2.8,61.76,61.76,0,0,0,1.39,7.68c.48,1.71.81,3,1.34,4.62l1.57,4.39a1.28,1.28,0,0,1,.26.32l2.38,5,4.33,6.61c.19.32.1.08.17.39,0,0,.09,0,.1.09l.2.17c.73.7,1.82,2.27,2.36,2.87l2.79,3.15c.19.08,0,0,.25.15l.35.29c.37.35.29.18.46.59L24.43,107a11.8,11.8,0,0,1,2.31,1.49A20.94,20.94,0,0,1,29.09,110c.94.38,1.63.87,2.59,1.31.73.33,1.76.89,2.38,1.24,1.37.48,2.56,1.19,4,1.68a71.33,71.33,0,0,0,8.63,2.57c.76.18,1.54.31,2.33.44l1.26.19.54.07.27.09a.88.88,0,0,1,.38.23H66.86c.42-.43,3.54-.73,4.41-.9a37.34,37.34,0,0,0,4.2-1c-.4-.22-1.67.3-2.43.36l-1.22.32a3.19,3.19,0,0,1-1.4.08s-.1,0-.13.07-.09.06-.12.07l-4.51.56-7.15,0a32.5,32.5,0,0,1-4.9-.54c-.51-.2-.13,0-.35-.19a3.37,3.37,0,0,1-1.75-.14c-.59-.11-1.2-.22-1.77-.35l-1.68-.5a3.72,3.72,0,0,1-1.69-.4c-.66-.11-4.66-1.24-5.29-1.88-.93,0-4.74-2-5.51-2.53-2.58-1.87-2.7-2.7-2.83-5.28-.19-4-.52-3.86,1.41-6.57.73-1,3.72-3.71,4.49-3.6.35-.49,0-.12.51-.5a3.53,3.53,0,0,1,.76-.36l1.6-.85A11.3,11.3,0,0,1,44,92.31a20.76,20.76,0,0,1,4.69-2.41l.32-.25.12-.07.36-.16,2.56-.6c.67-.09,3.23,0,3.88.44l.23-.12,4.72.8,2.39.56a7.31,7.31,0,0,1,2.8.73,24.31,24.31,0,0,1,4.46,1.13c.54.12,1.21.3,1.78.45.25.07.54.12.77.19.6.18.32,0,.66.35a3,3,0,0,1,1.67.39c.92.21,1.89.51,2.82.78a13.11,13.11,0,0,1,2.58.91c1.31-.32,1.19-2.37,2.06-3.14.17-.54,2.08-4.57,2.85-5.22a31.56,31.56,0,0,1,2.62-4.52A23.52,23.52,0,0,1,90,79.9c.77-1.18,4.32-6.79,5.16-7.22.12-.91,2.64-3.94,4.15-4a6.9,6.9,0,0,1,2.39-.93l8.07-1.79,1.43-.2c.24-.21-.05,0,.33-.19l.25-.09c.19-.06.44-.1.64-.14a3.73,3.73,0,0,1,1.49-.15c.58-.58,1.08-.35,1.83-.84l-.5-.64h-.82c-1.18.14-2.47.18-3.61.34s-2.32.43-3.65.55l-2.43.31c-1.28.37-6.19.25-7.38-.36-.58-.3-3.44-3.19-4.24-3.88l-6.88-7.26c-.19-.18-.27-.23-.5-.48l-.35-.52-.81-.75a3.1,3.1,0,0,1-.61-.75,12.71,12.71,0,0,1-1.43-1.6c-.47-.56-1-1-1.41-1.51-.68-.78-2.24-2.48-2.36-3.61A4.32,4.32,0,0,1,78,42a14.92,14.92,0,0,1-.25-2.5c0-1.18-.2-4.54.35-5.31l0-.43.19-2.28L78.7,24c0-.47,0-.95,0-1.42l.16-.91s0-.06.06-.13,0-.08.06-.12a3,3,0,0,1,1.21-2c.26-.49.25-.48.88-.83,2-1.13,5-3.18,6.66-3.83a18,18,0,0,1,2.33-1.31c.57-.36.69-.51,1.27-.17a3.25,3.25,0,0,1,.92.73c.61.22.32.08.49.4.37.06.11-.07.61.27l.46.35c.37.27.7.5,1,.77a62.76,62.76,0,0,1,9.1,8.77c.51.59,2.81,3.39,3,4.11.49.35.28.13.56.76a3.16,3.16,0,0,1,.64.86,2.25,2.25,0,0,1,.45.92c.68.51,2.65,4.4,2.85,5.14a18.66,18.66,0,0,1,1.87,4.45,3.58,3.58,0,0,1,.66,1.39,11.12,11.12,0,0,1,.42,1.47,35,35,0,0,1,1.35,4.82l.57,2.72a4,4,0,0,0,.5,1.77,7.93,7.93,0,0,0,1.44.85v-.7c-.1-.22-.46-2.85-.56-3.45a35,35,0,0,0-.62-3.46c-.59-2.09-1-4.2-1.72-6.23s-1.5-3.83-2.36-5.79l-2.68-5.35a11.81,11.81,0,0,1-1.45-2.2,9.07,9.07,0,0,1-1.41-2.23L107,24c-.06-.06-.26-.31-.36-.45l-3.57-4.39-4.74-4.68c-.78-.7-3-2.32-3.47-2.94-.4-.13-.2-.05-.57-.33l-.47-.34a3.42,3.42,0,0,1-.94-.75,1.92,1.92,0,0,1-.59-.31c-.39-.3-.17-.13-.37-.39a8,8,0,0,1-2.1-1.22c-.58-.37-1.61-.84-2.12-1.24-1.5-.6-3.19-1.62-4.77-2.27A63.77,63.77,0,0,0,72.43,1.16C71.69,1,67.23.35,66.71,0H51.47C51,.56,49.4.53,48.6.65a77.37,77.37,0,0,0-7.8,2Z"/><path class="cls-2" d="M73.94,40.34a27.66,27.66,0,0,1,3.88.72c0,.31.08.61.15.93a4.32,4.32,0,0,0,.77,2.16c.13,1.13,1.68,2.83,2.36,3.61.46.52.94,1,1.41,1.51a12.71,12.71,0,0,0,1.43,1.6,3.1,3.1,0,0,0,.61.75l.81.75.35.52c.23.25.31.3.5.48l6.88,7.26c.8.69,3.66,3.58,4.24,3.88a5.06,5.06,0,0,0,1.34.35A30.29,30.29,0,0,1,99,68.71c-1.52.41-3.74,3.12-3.85,4-.84.43-4.39,6-5.16,7.22a23.52,23.52,0,0,0-1.65,2.65,31.56,31.56,0,0,0-2.62,4.52c-.77.65-2.68,4.68-2.85,5.22-.87.77-.75,2.82-2.06,3.14a13.11,13.11,0,0,0-2.58-.91c-.93-.27-1.9-.57-2.82-.78a3,3,0,0,0-1.67-.39c-.34-.36-.06-.17-.66-.35-.23-.07-.52-.12-.77-.19-.57-.15-1.24-.33-1.78-.45a24.31,24.31,0,0,0-4.46-1.13,7.31,7.31,0,0,0-2.8-.73l-2.39-.56-4.72-.8-.23.12c-.65-.49-3.21-.53-3.88-.44l-1.58.37a29,29,0,0,1-2-2.52,1.72,1.72,0,0,0,.27-.82c.16-.19.12,0,.25-.36.21-.54,0,.07.15-.67l0-2.28c0-.91,0-1.83-.05-2.75l-.29-2.37.05-1.21a24.33,24.33,0,0,0-.41-3.73,9.49,9.49,0,0,0-.16-2.23,12,12,0,0,0-.5-2.63c.14-1.29-1-6.12-1.31-7.71a6.26,6.26,0,0,0-1.14-2.3,28.38,28.38,0,0,1,1.6-3.22,13.14,13.14,0,0,0,2.76-.73l1.56-.56.1-.07.21-.14c1,0,3.73-1.38,5.09-1.78a8.53,8.53,0,0,0,2.56-1.22,21.75,21.75,0,0,0,4.17-1.76L66,46.81l.1-.09a2.68,2.68,0,0,0,1.31-.58,1.64,1.64,0,0,0,1.07-.58C69.94,45.42,72.87,42.55,73.94,40.34Z"/></g></g></svg>